<?xml version="1.0" standalone="no"?>
<!DOCTYPE svg PUBLIC "-//W3C//DTD SVG 20010904//EN" "http://www.w3.org/TR/2001/REC-SVG-20010904/DTD/svg10.dtd">
<svg version="1.0" xmlns="http://www.w3.org/2000/svg" width="1875.000000pt" height="1875.000000pt"
        viewBox="0 0 1875.000000 1875.000000" preserveAspectRatio="xMidYMid meet">

        <!-- #175db2 -->
        <g transform="translate(0.000000,1875.000000) scale(0.100000,-0.100000)" fill="rgb(23,93,178)" stroke="none">
                <path d="M1012 18149 c-82 -10 -121 -23 -207 -68 -135 -69 -250 -216 -289
-367 -20 -79 -20 -219 0 -298 49 -189 205 -353 399 -417 32 -11 247 -15 1045
-19 l1005 -5 181 -969 c100 -532 190 -989 199 -1015 66 -176 232 -322 416
-366 57 -13 790 -15 6622 -15 5239 0 6557 -3 6557 -12 0 -7 -212 -1074 -471
-2370 l-472 -2358 -5506 -3 c-5153 -2 -5509 -3 -5561 -19 -201 -63 -353 -211
-412 -403 -17 -53 -22 -94 -22 -170 1 -97 10 -136 308 -1325 329 -1313 328
-1310 419 -1422 57 -69 175 -150 265 -180 l67 -23 5205 -3 c4621 -2 5211 0
5265 13 166 42 316 160 387 305 165 338 2 714 -362 837 -53 17 -222 18 -4985
21 l-4930 2 -144 578 c-80 317 -146 585 -149 595 -4 16 256 17 5360 17 4803 0
5370 2 5423 15 189 50 345 193 412 379 8 23 284 1389 614 3036 647 3234 620
3085 584 3224 -52 200 -208 359 -415 424 -52 16 -463 17 -6745 22 l-6689 5
-157 840 c-87 462 -169 901 -183 975 -20 104 -36 154 -67 219 -72 146 -209
259 -375 308 -55 16 -152 17 -1294 19 -679 1 -1263 -2 -1298 -7z" />
                <path d="M6250 5124 c-19 -2 -77 -9 -128 -15 -418 -48 -845 -229 -1193 -505
-98 -77 -280 -259 -358 -359 -441 -557 -612 -1256 -475 -1945 182 -921 906
-1655 1824 -1850 805 -171 1637 87 2206 683 684 716 847 1780 410 2672 -233
476 -605 847 -1080 1080 -233 113 -451 181 -706 220 -101 15 -427 28 -500 19z
m340 -1188 c254 -39 482 -155 665 -340 462 -467 460 -1204 -4 -1667 -233 -233
-512 -349 -836 -349 -333 0 -628 127 -860 371 -257 269 -370 636 -310 1004
103 636 708 1077 1345 981z" />
                <path d="M14540 5124 c-19 -2 -77 -9 -128 -15 -526 -61 -1053 -327 -1422 -716
-332 -351 -550 -795 -625 -1273 -23 -148 -30 -420 -16 -576 90 -954 747 -1760
1666 -2043 438 -135 942 -135 1380 0 880 271 1509 1006 1651 1929 23 144 25
500 5 635 -40 274 -113 512 -226 741 -347 704 -1003 1181 -1785 1299 -101 15
-427 28 -500 19z m340 -1188 c440 -67 807 -376 949 -802 110 -329 66 -699
-121 -1003 -72 -117 -252 -297 -370 -369 -194 -120 -364 -171 -590 -179 -169
-6 -287 10 -428 59 -303 106 -555 333 -690 620 -143 305 -147 671 -11 978 79
181 243 381 401 492 248 174 562 248 860 204z" />
        </g>
</svg>